PathFileType	4	(X/Y/Z)	Run_200 01
DataRate	CameraRate	NumFrames	NumMarkers	Units	OrigDataRate	OrigDataStartFrame	OrigNumFrames
120	120	8	42	mm	120	155	128
Frame#	Time	LASI			RASI			LPSI			RPSI			RTH1			RTH2			RTH3			LTH1			LTH2			LTH3			RTB2			RTB3			LTB1			LTB2			LTB3			RCAL			RTOE			RMT5			LCAL			LTOE			LMT5			LACR			RACR			CLAV			C7			RUA1			RUA2			RUA3			RLEL			RMEL			LUA1			LUA2			LUA3			LLEL			LMEL			RFAsuperior			RFAradius			RFAulna			LFAsuperior			LFAradius			LFAulna			RTB1			
		X1	Y1	Z1	X2	Y2	Z2	X3	Y3	Z3	X4	Y4	Z4	X5	Y5	Z5	X6	Y6	Z6	X7	Y7	Z7	X8	Y8	Z8	X9	Y9	Z9	X10	Y10	Z10	X11	Y11	Z11	X12	Y12	Z12	X13	Y13	Z13	X14	Y14	Z14	X15	Y15	Z15	X16	Y16	Z16	X17	Y17	Z17	X18	Y18	Z18	X19	Y19	Z19	X20	Y20	Z20	X21	Y21	Z21	X22	Y22	Z22	X23	Y23	Z23	X24	Y24	Z24	X25	Y25	Z25	X26	Y26	Z26	X27	Y27	Z27	X28	Y28	Z28	X29	Y29	Z29	X30	Y30	Z30	X31	Y31	Z31	X32	Y32	Z32	X33	Y33	Z33	X34	Y34	Z34	X35	Y35	Z35	X36	Y36	Z36	X37	Y37	Z37	X38	Y38	Z38	X39	Y39	Z39	X40	Y40	Z40	X41	Y41	Z41	X42	Y42	Z42	

154	1.508333	480.453849	1023.316981	-439.862594	494.25509	1049.455263	-192.556691	317.490862	1055.463827	-343.923892	325.267484	1060.072295	-258.314034	527.6540209999999	880.281868	-155.445245	626.429293	795.631218	-198.130787	603.065009	651.805842	-185.940918	407.444894	875.805969	-469.473397	433.117444	755.780889	-447.142574	324.081708	642.392065	-422.328222	611.485998	397.701166	-179.764099	594.640068	282.028191	-242.631778	294.129045	403.011931	-338.653433	207.592458	324.71282	-381.052933	191.889665	244.094305	-304.908424	454.499097	174.951957	-235.918099	666.879746	117.240857	-243.98702	633.536429	113.597889	-150.08566	37.92821	186.754378	-296.49968	221.567683	73.168414	-290.145189	182.719056	66.488275	-374.452505	498.421653	1477.480954	-475.378204	434.990155	1478.066476	-98.904411	550.695619	1445.48111	-244.223914	433.185095	1539.900979	-292.663945	377.40293	1387.35686	-38.929096	376.698854	1315.076076	-36.698773	274.007811	1327.799087	-20.000157	269.063854	1242.766603	21.710723	230.110148	1231.045956	-58.220311	481.020618	1408.702374	-538.148404	411.557865	1351.510053	-552.392193	477.182105	1320.083696	-586.932373	459.529707	1221.127261	-637.595898	393.638325	1178.163226	-589.567361	341.054097	1200.326392	20.069227	478.985271	1124.631693	-34.945067	434.861115	1072.884638	-30.582577	521.439989	1223.76578	-600.087818	610.5744110000001	1214.100507	-447.664004	626.512647	1157.724147	-477.007723	657.9652149999999	450.21208	-241.343853	
155	1.516667	482.306924	1026.616053	-439.179707	495.666689	1051.76685	-192.485906	319.600548	1058.871086	-344.667304	325.440375	1063.502796	-259.283701	527.454166	880.859139	-155.371599	625.217864	794.499199	-198.51096	599.289186	650.8992009999999	-185.219247	408.038883	878.721073	-469.737795	433.195731	758.382294	-449.143111	324.528935	645.101769	-423.658354	616.629013	394.059043	-180.169884	606.152127	278.028598	-244.270307	291.95639	405.252385	-341.173992	202.702508	329.467583	-382.779352	185.676377	248.905394	-307.161499	472.407951	161.939499	-236.862888	687.836415	118.703345	-251.013206	657.293349	110.629287	-156.317553	31.25719	197.996706	-297.288773	208.131559	73.742621	-291.115682	168.348431	68.242296	-374.705967	500.373442	1480.708528	-474.256492	434.413409	1479.970272	-98.650088	550.882539	1448.254606	-242.989602	433.851883	1542.559512	-292.019317	376.896731	1389.611035	-38.517446	376.550209	1317.269832	-36.044977	273.769909	1329.613989	-19.754509	268.670394	1244.53691	21.587569	229.932404	1233.024034	-58.493309	482.982517	1412.295786	-537.4642700000001	412.887118	1355.936868	-552.542345	478.33461	1323.290055	-586.092912	460.065835	1224.206737	-636.535606	393.008255	1182.18994	-588.877961	340.672137	1202.257485	20.237368	478.962341	1126.800722	-34.408424	435.041725	1075.078919	-30.303031	521.755492	1226.562693	-598.705276	608.881795	1216.881847	-445.13139	624.8248170000001	1160.352643	-474.075302	659.723686	449.376581	-241.415314	
156	1.525	484.050127	1029.380343	-438.470756	496.939752	1053.382989	-192.247494	321.681141	1061.847937	-345.13477	325.542803	1066.392014	-259.814274	526.9956	880.597934	-154.984698	623.449876	792.352504	-198.500849	595.090717	649.149667	-184.194406	409.141212	881.2141820000001	-469.894498	434.320278	760.606141	-451.089514	326.562447	646.79382	-425.217934	620.15414	390.41765	-180.489203	616.198929	274.312691	-245.656856	291.137842	406.542845	-343.933419	198.985893	333.645208	-384.719319	180.258716	253.340415	-309.513533	488.850383	150.129381	-238.029499	706.140624	120.855742	-258.070272	678.536562	107.884946	-162.897349	25.60231	209.406255	-298.128418	195.17425	74.900402	-292.073076	154.127122	70.344813	-375.026668	501.978729	1483.49529	-473.188675	434.138523	1481.367309	-98.353465	551.111237	1450.505936	-241.90472	434.479084	1544.699962	-291.308879	376.74249	1391.291658	-38.052004	376.818963	1318.929419	-35.197907	273.868672	1330.779218	-19.496011	268.783369	1245.648499	21.607458	230.253327	1234.266936	-58.619918	484.436935	1415.430201	-536.776142	413.947165	1359.793473	-552.413537	478.924924	1326.011659	-584.975737	460.107367	1226.76924	-635.397283	392.021525	1185.774454	-587.976555	340.823142	1203.584567	20.488071	479.495558	1128.396459	-33.807194	435.682768	1076.724645	-30.00457	521.680663	1228.775905	-597.432197	607.200933	1218.860703	-442.823881	622.951687	1162.142591	-471.545067	660.537778	448.071171	-241.300884	
157	1.533333	485.758637	1031.631501	-437.662942	498.117611	1054.436179	-191.878193	323.68217	1064.262677	-345.287782	326.6679	1068.557335	-259.823314	526.341959	879.664474	-154.189628	621.052883	789.2874890000001	-197.903958	590.434718	646.548596	-182.966565	410.931336	883.14572	-469.98408	436.607518	762.310975	-452.824499	330.079693	647.486685	-426.985422	622.258813	386.637592	-180.800858	624.507381	270.80297	-247.020853	291.471828	407.018229	-346.883673	196.313482	337.385836	-386.867108	175.720687	257.522666	-311.904952	503.312132	139.625186	-239.696521	721.405541	123.399467	-264.597964	696.589589	105.314879	-169.445922	20.974009	220.964934	-299.02453	182.782242	76.934377	-292.931196	140.057937	72.86272	-375.440709	503.240584	1485.735336	-472.182242	434.201856	1482.164201	-98.010372	551.373255	1452.142516	-240.952016	435.075822	1546.249362	-290.52078	376.963707	1392.30666	-37.520348	377.464876	1319.948504	-34.250238	274.301529	1331.280463	-19.208657	269.383585	1246.087296	21.788622	231.052205	1234.75426	-58.578234	485.385952	1418.034018	-536.071884	414.714463	1362.991944	-552.002549	478.990095	1328.20465	-583.689552	459.64583	1228.753247	-634.191042	390.754776	1188.822963	-586.886042	341.49426	1204.289245	20.852788	480.574069	1129.412858	-33.114131	436.821656	1077.778981	-29.619038	521.186009	1230.351216	-596.25977	605.553905	1220.036385	-440.699323	620.9283339999999	1163.085916	-469.361772	660.486341	446.301367	-241.12249	
158	1.541667	487.469255	1033.41021	-436.684547	499.200947	1054.882259	-191.483569	325.587958	1066.019416	-345.166617	329.309804	1069.88991	-259.366699	525.473601	878.125076	-153.020834	618.0254660000001	785.4186580000001	-196.695291	585.3915029999999	643.215633	-181.687659	413.503198	884.375209	-470.036353	440.085123	763.395753	-454.294602	334.989523	647.224997	-428.94914	623.217804	382.628046	-181.259778	630.83549	267.399029	-248.586671	292.866008	406.829682	-350.010564	194.62555	340.881598	-389.192997	172.183808	261.540444	-314.415131	515.2873990000001	130.374375	-241.945673	733.384129	126.033537	-270.288559	711.019915	103.004367	-175.530049	17.450259	232.726941	-300.076413	171.052303	80.009711	-293.802485	126.259121	75.902856	-375.879368	504.150379	1487.318568	-471.240472	434.601283	1482.263518	-97.639613	551.661635	1453.11054	-240.149928	435.651664	1547.156763	-289.673778	377.542225	1392.585671	-36.939612	378.409606	1320.233007	-33.375572	275.052104	1331.091933	-18.891152	270.427696	1245.834807	22.118823	232.276862	1234.442911	-58.350679	485.843792	1420.022452	-535.33462	415.133206	1365.444937	-551.318096	478.61547	1329.828118	-582.39545	458.676033	1230.103243	-632.941028	389.208424	1191.222976	-585.634676	342.644344	1204.351023	21.328212	482.174303	1129.858139	-32.361781	438.506974	1078.214321	-29.120395	520.233039	1231.230674	-595.159896	603.93061	1220.455617	-438.838076	618.736025	1163.186457	-467.470768	659.6382	444.075471	-241.041968	
159	1.55	489.16596	1034.683587	-435.522643	500.133265	1054.556801	-191.16399	327.429603	1067.058737	-344.852645	332.87643	1070.386381	-258.58386	524.338041	875.953341	-151.574736	614.485077	780.9032079999999	-195.038423	580.201494	639.373879	-180.53555	416.835937	884.793312	-470.058127	444.657358	763.810864	-455.538016	341.220821	646.047994	-431.110238	623.252173	378.382738	-182.021275	635.0698599999999	263.994712	-250.456393	295.343208	406.106688	-353.306421	193.994812	344.30219	-391.630626	169.688269	265.411217	-317.201297	524.435848	122.177812	-244.680302	742.0909	128.372661	-275.000665	721.7180499999999	100.966625	-180.764753	15.211155	244.780734	-301.425955	160.048834	84.04330299999999	-294.913982	112.976398	79.60967599999999	-376.257311	504.701413	1488.145822	-470.366019	435.291008	1481.618681	-97.25245700000001	551.9793100000001	1453.379055	-239.531202	436.202683	1547.371573	-288.804813	378.433162	1392.081702	-36.330154	379.58306	1319.719887	-32.719207	276.095388	1330.17034	-18.548348	271.866658	1244.857462	22.574996	233.868015	1233.276301	-57.928175	485.839594	1421.29773	-534.543909	415.138148	1367.0742	-550.369296	477.894077	1330.833662	-581.244295	457.209779	1230.771113	-631.681545	387.316409	1192.869945	-584.247172	344.217269	1203.738607	21.888547	484.269623	1129.747606	-31.608071	440.755262	1078.025813	-28.506172	518.799852	1231.353881	-594.08465	602.305835	1220.136752	-437.385575	616.333044	1162.459814	-465.877531	658.0687840000001	441.415864	-241.231211	
160	1.558333	490.803724	1035.348392	-434.223836	500.849447	1053.338891	-190.95585	329.198651	1067.332872	-344.417673	336.092491	1070.076238	-257.630793	522.9194639999999	873.107483	-149.893482	610.71967	775.984076	-193.226151	575.20619	635.237868	-179.657969	420.812827	884.353737	-470.055446	450.118932	763.5450530000001	-456.636342	348.685177	643.996524	-433.474787	622.475039	373.934556	-183.116888	637.297788	260.477083	-252.546916	298.976617	404.940944	-356.725486	194.59947	347.711804	-394.083287	168.183451	269.15261	-320.301689	530.699296	114.852391	-247.768681	747.838198	129.728402	-278.649813	728.803271	98.83511900000001	-184.945778	14.481602	257.16126	-303.136138	149.810442	88.76301100000001	-296.43257	100.531593	84.147244	-376.591565	504.918708	1488.138458	-469.566049	436.198257	1480.241779	-96.836792	552.342612	1452.911525	-239.104441	436.712711	1546.831682	-287.946418	379.589901	1390.762949	-35.685227	380.974346	1318.378498	-32.280953	277.415634	1328.455612	-18.163108	273.671946	1243.10289	23.160872	235.784889	1231.204477	-57.300749	485.429657	1421.758219	-533.693875	414.684159	1367.819583	-549.174971	476.862815	1331.145243	-580.297147	455.267015	1230.712455	-630.450068	385.019764	1193.693969	-582.747607	346.181003	1202.410902	22.522779	486.844326	1129.092303	-30.8694	443.545718	1077.230472	-27.769618	516.897168	1230.67593	-593.018509	600.656864	1219.019936	-436.445818	613.710861	1160.933842	-464.664239	655.86061	438.32702	-241.7748	
161	1.566667	492.336317	1035.290425	-432.856829	501.350609	1051.287584	-190.824848	330.797522	1066.77111	-343.910283	337.99168	1068.905768	-256.657902	521.271227	869.580072	-147.96879	607.17246	770.95856	-191.56375	570.6795080000001	630.885815	-179.100084	425.25859	883.094967	-470.06951	456.214306	762.613998	-457.67155	357.219574	641.138228	-436.043981	620.886562	369.256272	-184.384816	637.813624	256.690784	-254.602774	303.794846	403.393223	-360.160529	196.60823	351.041592	-396.467866	167.661105	272.935135	-323.418658	534.252393	108.449876	-251.197213	751.088516	128.940141	-281.187491	732.430248	95.803681	-188.07128	15.372778	269.756771	-305.086107	140.438426	93.92026199999999	-298.37344	89.24535299999999	89.689947	-377.060494	504.87042	1487.243904	-468.854273	437.254775	1478.159057	-96.35830300000001	552.773375	1451.654127	-238.831664	437.169806	1545.476549	-287.109146	380.978392	1388.603076	-34.962189	382.63891	1316.196976	-31.887895	279.018395	1325.878526	-17.675333	275.847658	1240.508965	23.926397	238.013064	1228.196361	-56.44447	484.692893	1421.31158	-532.809454	413.764067	1367.643017	-547.781704	475.48462	1330.656805	-579.507252	452.855698	1229.887568	-629.277923	382.331853	1193.667824	-581.165944	348.551725	1200.326207	23.268189	489.900608	1127.888938	-30.085576	446.852839	1075.850094	-26.887839	514.564564	1229.184774	-592.033363	598.972186	1217.008934	-436.012477	610.919316	1158.641377	-463.93621	653.080722	434.732291	-242.561671	
